<svg xmlns="http://www.w3.org/2000/svg" xmlns:xlink="http://www.w3.org/1999/xlink" width="672" zoomAndPan="magnify" viewBox="0 0 504 72" height="96" preserveAspectRatio="xMidYMid meet" version="1.0"><defs><g/></defs><g fill="#000000" fill-opacity="1"><g transform="translate(26.34978, 47.399274)"><g><path d="M 9.078125 0 L 9.078125 -0.59375 C 9.773438 -0.800781 10.25 -1.253906 10.5 -1.953125 C 10.757812 -2.660156 10.890625 -3.941406 10.890625 -5.796875 L 10.890625 -31.1875 L 8.65625 -31.1875 C 6.625 -31.1875 5.078125 -30.863281 4.015625 -30.21875 C 2.953125 -29.582031 2.023438 -28.445312 1.234375 -26.8125 L 0.734375 -26.90625 L 1 -31.921875 L 24.484375 -31.921875 L 24.75 -26.90625 L 24.25 -26.8125 C 23.488281 -28.445312 22.578125 -29.582031 21.515625 -30.21875 C 20.453125 -30.863281 18.890625 -31.1875 16.828125 -31.1875 L 14.6875 -31.1875 L 14.6875 -5.796875 C 14.6875 -3.941406 14.8125 -2.660156 15.0625 -1.953125 C 15.320312 -1.253906 15.800781 -0.800781 16.5 -0.59375 L 16.5 0 Z M 9.078125 0 "/></g></g></g><g fill="#000000" fill-opacity="1"><g transform="translate(51.884215, 47.399274)"><g><path d="M 2.328125 0 L 2.328125 -0.59375 C 3.023438 -0.800781 3.503906 -1.253906 3.765625 -1.953125 C 4.023438 -2.660156 4.15625 -3.941406 4.15625 -5.796875 L 4.15625 -26.125 C 4.15625 -28.007812 4.023438 -29.289062 3.765625 -29.96875 C 3.503906 -30.65625 3.023438 -31.109375 2.328125 -31.328125 L 2.328125 -31.921875 L 9.71875 -31.921875 L 9.71875 -31.328125 C 9.007812 -31.109375 8.523438 -30.65625 8.265625 -29.96875 C 8.015625 -29.289062 7.890625 -28.007812 7.890625 -26.125 L 7.890625 -17.28125 L 25.265625 -17.28125 L 25.265625 -26.125 C 25.265625 -28.007812 25.132812 -29.289062 24.875 -29.96875 C 24.613281 -30.65625 24.132812 -31.109375 23.4375 -31.328125 L 23.4375 -31.921875 L 30.828125 -31.921875 L 30.828125 -31.328125 C 30.117188 -31.109375 29.632812 -30.65625 29.375 -29.96875 C 29.125 -29.289062 29 -28.007812 29 -26.125 L 29 -5.796875 C 29 -3.941406 29.125 -2.660156 29.375 -1.953125 C 29.632812 -1.253906 30.117188 -0.800781 30.828125 -0.59375 L 30.828125 0 L 23.4375 0 L 23.4375 -0.59375 C 24.132812 -0.800781 24.613281 -1.253906 24.875 -1.953125 C 25.132812 -2.660156 25.265625 -3.941406 25.265625 -5.796875 L 25.265625 -16.546875 L 7.890625 -16.546875 L 7.890625 -5.796875 C 7.890625 -3.941406 8.015625 -2.660156 8.265625 -1.953125 C 8.523438 -1.253906 9.007812 -0.800781 9.71875 -0.59375 L 9.71875 0 Z M 2.328125 0 "/></g></g></g><g fill="#000000" fill-opacity="1"><g transform="translate(84.987785, 47.399274)"><g><path d="M 2.328125 0 L 2.328125 -0.59375 C 3.023438 -0.800781 3.503906 -1.253906 3.765625 -1.953125 C 4.023438 -2.660156 4.15625 -3.941406 4.15625 -5.796875 L 4.15625 -26.125 C 4.15625 -28.007812 4.023438 -29.289062 3.765625 -29.96875 C 3.503906 -30.65625 3.023438 -31.109375 2.328125 -31.328125 L 2.328125 -31.921875 L 23.53125 -31.921875 L 24.03125 -25.984375 L 23.53125 -25.859375 C 22.738281 -27.859375 21.632812 -29.253906 20.21875 -30.046875 C 18.800781 -30.835938 16.925781 -31.234375 14.59375 -31.234375 L 7.890625 -31.234375 L 7.890625 -17.421875 L 13.71875 -17.421875 C 15.457031 -17.421875 16.800781 -17.53125 17.75 -17.75 C 18.707031 -17.976562 19.40625 -18.328125 19.84375 -18.796875 C 20.289062 -19.273438 20.609375 -19.847656 20.796875 -20.515625 L 21.34375 -20.515625 L 21.34375 -13.625 L 20.796875 -13.625 C 20.609375 -14.332031 20.289062 -14.910156 19.84375 -15.359375 C 19.40625 -15.816406 18.707031 -16.160156 17.75 -16.390625 C 16.800781 -16.617188 15.457031 -16.734375 13.71875 -16.734375 L 7.890625 -16.734375 L 7.890625 -2.734375 C 7.890625 -1.367188 8.570312 -0.6875 9.9375 -0.6875 L 15.859375 -0.6875 C 18.054688 -0.6875 19.867188 -1.066406 21.296875 -1.828125 C 22.722656 -2.585938 23.847656 -4.03125 24.671875 -6.15625 L 25.171875 -6.0625 L 24.796875 0 Z M 2.328125 0 "/></g></g></g><g fill="#000000" fill-opacity="1"><g transform="translate(111.88886, 47.399274)"><g/></g></g><g fill="#000000" fill-opacity="1"><g transform="translate(121.464251, 47.399274)"><g/></g></g><g fill="#000000" fill-opacity="1"><g transform="translate(131.080605, 47.399274)"><g><path d="M 2.328125 0 L 2.328125 -0.59375 C 3.023438 -0.800781 3.503906 -1.253906 3.765625 -1.953125 C 4.023438 -2.660156 4.15625 -3.941406 4.15625 -5.796875 L 4.15625 -26.125 C 4.15625 -28.007812 4.023438 -29.289062 3.765625 -29.96875 C 3.503906 -30.65625 3.023438 -31.109375 2.328125 -31.328125 L 2.328125 -31.921875 L 11.578125 -31.921875 C 14.742188 -31.921875 17.226562 -31.476562 19.03125 -30.59375 C 20.84375 -29.707031 22.128906 -28.582031 22.890625 -27.21875 C 23.648438 -25.851562 24.03125 -24.425781 24.03125 -22.9375 C 24.03125 -19.894531 22.941406 -17.414062 20.765625 -15.5 C 18.597656 -13.582031 15.382812 -12.625 11.125 -12.625 L 7.890625 -12.625 L 7.890625 -5.796875 C 7.890625 -3.941406 8.015625 -2.660156 8.265625 -1.953125 C 8.523438 -1.253906 9.007812 -0.800781 9.71875 -0.59375 L 9.71875 0 Z M 7.890625 -13.3125 L 11.03125 -13.3125 C 13.945312 -13.3125 16.171875 -14.070312 17.703125 -15.59375 C 19.242188 -17.113281 20.015625 -19.210938 20.015625 -21.890625 C 20.015625 -23.523438 19.671875 -25.050781 18.984375 -26.46875 C 18.304688 -27.882812 17.222656 -29.03125 15.734375 -29.90625 C 14.242188 -30.789062 12.265625 -31.234375 9.796875 -31.234375 C 9.492188 -31.234375 9.164062 -31.222656 8.8125 -31.203125 C 8.46875 -31.191406 8.160156 -31.171875 7.890625 -31.140625 Z M 7.890625 -13.3125 "/></g></g></g><g fill="#000000" fill-opacity="1"><g transform="translate(156.250247, 47.399274)"><g><path d="M 25.53125 0.3125 C 24.375 0.3125 23.460938 0.03125 22.796875 -0.53125 C 22.128906 -1.09375 21.546875 -1.910156 21.046875 -2.984375 C 20.546875 -4.066406 19.957031 -5.394531 19.28125 -6.96875 C 18.613281 -8.550781 18.050781 -9.9375 17.59375 -11.125 C 17.144531 -12.3125 16.648438 -13.300781 16.109375 -14.09375 C 15.578125 -14.882812 14.898438 -15.472656 14.078125 -15.859375 C 13.265625 -16.253906 12.175781 -16.453125 10.8125 -16.453125 L 7.890625 -16.453125 L 7.890625 -5.796875 C 7.890625 -3.941406 8.015625 -2.660156 8.265625 -1.953125 C 8.523438 -1.253906 9.007812 -0.800781 9.71875 -0.59375 L 9.71875 0 L 2.328125 0 L 2.328125 -0.59375 C 3.023438 -0.800781 3.503906 -1.253906 3.765625 -1.953125 C 4.023438 -2.660156 4.15625 -3.941406 4.15625 -5.796875 L 4.15625 -26.125 C 4.15625 -28.007812 4.023438 -29.289062 3.765625 -29.96875 C 3.503906 -30.65625 3.023438 -31.109375 2.328125 -31.328125 L 2.328125 -31.921875 L 11.3125 -31.921875 C 14.40625 -31.921875 16.816406 -31.609375 18.546875 -30.984375 C 20.285156 -30.359375 21.507812 -29.515625 22.21875 -28.453125 C 22.9375 -27.390625 23.296875 -26.171875 23.296875 -24.796875 C 23.296875 -22.671875 22.535156 -20.851562 21.015625 -19.34375 C 19.492188 -17.84375 17.242188 -16.925781 14.265625 -16.59375 C 15.671875 -16.414062 16.8125 -16.101562 17.6875 -15.65625 C 18.570312 -15.21875 19.300781 -14.625 19.875 -13.875 C 20.457031 -13.132812 20.972656 -12.234375 21.421875 -11.171875 C 21.878906 -10.109375 22.382812 -8.878906 22.9375 -7.484375 C 23.664062 -5.648438 24.28125 -4.234375 24.78125 -3.234375 C 25.28125 -2.234375 25.742188 -1.523438 26.171875 -1.109375 C 26.597656 -0.703125 27.066406 -0.5 27.578125 -0.5 C 27.734375 -0.5 27.863281 -0.5 27.96875 -0.5 C 28.070312 -0.5 28.1875 -0.515625 28.3125 -0.546875 L 28.3125 0 C 27.976562 0.125 27.546875 0.207031 27.015625 0.25 C 26.484375 0.289062 25.988281 0.3125 25.53125 0.3125 Z M 7.890625 -17.140625 L 11.71875 -17.140625 C 14.332031 -17.140625 16.269531 -17.753906 17.53125 -18.984375 C 18.789062 -20.222656 19.421875 -21.8125 19.421875 -23.75 C 19.421875 -25.125 19.109375 -26.375 18.484375 -27.5 C 17.859375 -28.625 16.851562 -29.523438 15.46875 -30.203125 C 14.09375 -30.890625 12.28125 -31.234375 10.03125 -31.234375 C 9.695312 -31.234375 9.347656 -31.222656 8.984375 -31.203125 C 8.617188 -31.191406 8.253906 -31.171875 7.890625 -31.140625 Z M 7.890625 -17.140625 "/></g></g></g><g fill="#000000" fill-opacity="1"><g transform="translate(184.155733, 47.399274)"><g><path d="M 18.609375 0.453125 C 16.660156 0.453125 14.726562 0.128906 12.8125 -0.515625 C 10.894531 -1.171875 9.144531 -2.175781 7.5625 -3.53125 C 5.988281 -4.882812 4.726562 -6.59375 3.78125 -8.65625 C 2.84375 -10.726562 2.375 -13.175781 2.375 -16 C 2.375 -19.132812 3.054688 -21.925781 4.421875 -24.375 C 5.785156 -26.820312 7.679688 -28.75 10.109375 -30.15625 C 12.546875 -31.570312 15.378906 -32.28125 18.609375 -32.28125 C 20.515625 -32.28125 22.425781 -31.945312 24.34375 -31.28125 C 26.257812 -30.613281 28 -29.601562 29.5625 -28.25 C 31.132812 -26.894531 32.390625 -25.179688 33.328125 -23.109375 C 34.273438 -21.046875 34.75 -18.617188 34.75 -15.828125 C 34.75 -12.992188 34.273438 -10.554688 33.328125 -8.515625 C 32.390625 -6.484375 31.128906 -4.796875 29.546875 -3.453125 C 27.960938 -2.117188 26.21875 -1.132812 24.3125 -0.5 C 22.414062 0.132812 20.515625 0.453125 18.609375 0.453125 Z M 6.015625 -18.640625 C 6.109375 -16.367188 6.523438 -14.160156 7.265625 -12.015625 C 8.015625 -9.867188 9.035156 -7.941406 10.328125 -6.234375 C 11.617188 -4.535156 13.128906 -3.1875 14.859375 -2.1875 C 16.597656 -1.1875 18.484375 -0.6875 20.515625 -0.6875 C 22.953125 -0.6875 24.972656 -1.21875 26.578125 -2.28125 C 28.191406 -3.34375 29.382812 -4.789062 30.15625 -6.625 C 30.9375 -8.46875 31.28125 -10.53125 31.1875 -12.8125 C 31.09375 -15.1875 30.671875 -17.472656 29.921875 -19.671875 C 29.179688 -21.878906 28.171875 -23.847656 26.890625 -25.578125 C 25.617188 -27.304688 24.113281 -28.679688 22.375 -29.703125 C 20.644531 -30.722656 18.765625 -31.234375 16.734375 -31.234375 C 14.421875 -31.234375 12.453125 -30.703125 10.828125 -29.640625 C 9.203125 -28.578125 7.96875 -27.101562 7.125 -25.21875 C 6.289062 -23.332031 5.921875 -21.140625 6.015625 -18.640625 Z M 6.015625 -18.640625 "/></g></g></g><g fill="#000000" fill-opacity="1"><g transform="translate(221.226244, 47.399274)"><g><path d="M -2.921875 5.46875 C -3.492188 5.46875 -3.9375 5.40625 -4.25 5.28125 C -4.570312 5.164062 -4.734375 4.894531 -4.734375 4.46875 C -4.734375 3.976562 -4.515625 3.503906 -4.078125 3.046875 C -3.640625 2.597656 -3.023438 2.375 -2.234375 2.375 C -1.597656 2.375 -0.953125 2.425781 -0.296875 2.53125 C 0.359375 2.632812 1.234375 2.8125 2.328125 3.0625 C 2.691406 2.8125 3.054688 2.476562 3.421875 2.0625 C 3.785156 1.65625 4.09375 1.023438 4.34375 0.171875 C 4.601562 -0.671875 4.734375 -1.851562 4.734375 -3.375 L 4.734375 -26.125 C 4.734375 -28.007812 4.601562 -29.289062 4.34375 -29.96875 C 4.09375 -30.65625 3.617188 -31.109375 2.921875 -31.328125 L 2.921875 -31.921875 L 10.265625 -31.921875 L 10.265625 -31.328125 C 9.554688 -31.109375 9.070312 -30.65625 8.8125 -29.96875 C 8.5625 -29.289062 8.4375 -28.007812 8.4375 -26.125 L 8.4375 -8.9375 C 8.4375 -6.019531 7.894531 -3.476562 6.8125 -1.3125 C 5.738281 0.84375 4.34375 2.507812 2.625 3.6875 C 0.90625 4.875 -0.941406 5.46875 -2.921875 5.46875 Z M -2.921875 5.46875 "/></g></g></g><g fill="#000000" fill-opacity="1"><g transform="translate(233.811087, 47.399274)"><g><path d="M 2.328125 0 L 2.328125 -0.59375 C 3.023438 -0.800781 3.503906 -1.253906 3.765625 -1.953125 C 4.023438 -2.660156 4.15625 -3.941406 4.15625 -5.796875 L 4.15625 -26.125 C 4.15625 -28.007812 4.023438 -29.289062 3.765625 -29.96875 C 3.503906 -30.65625 3.023438 -31.109375 2.328125 -31.328125 L 2.328125 -31.921875 L 23.53125 -31.921875 L 24.03125 -25.984375 L 23.53125 -25.859375 C 22.738281 -27.859375 21.632812 -29.253906 20.21875 -30.046875 C 18.800781 -30.835938 16.925781 -31.234375 14.59375 -31.234375 L 7.890625 -31.234375 L 7.890625 -17.421875 L 13.71875 -17.421875 C 15.457031 -17.421875 16.800781 -17.53125 17.75 -17.75 C 18.707031 -17.976562 19.40625 -18.328125 19.84375 -18.796875 C 20.289062 -19.273438 20.609375 -19.847656 20.796875 -20.515625 L 21.34375 -20.515625 L 21.34375 -13.625 L 20.796875 -13.625 C 20.609375 -14.332031 20.289062 -14.910156 19.84375 -15.359375 C 19.40625 -15.816406 18.707031 -16.160156 17.75 -16.390625 C 16.800781 -16.617188 15.457031 -16.734375 13.71875 -16.734375 L 7.890625 -16.734375 L 7.890625 -2.734375 C 7.890625 -1.367188 8.570312 -0.6875 9.9375 -0.6875 L 15.859375 -0.6875 C 18.054688 -0.6875 19.867188 -1.066406 21.296875 -1.828125 C 22.722656 -2.585938 23.847656 -4.03125 24.671875 -6.15625 L 25.171875 -6.0625 L 24.796875 0 Z M 2.328125 0 "/></g></g></g><g fill="#000000" fill-opacity="1"><g transform="translate(260.667851, 47.399274)"><g><path d="M 19.5625 0.453125 C 16.0625 0.453125 13.023438 -0.164062 10.453125 -1.40625 C 7.890625 -2.65625 5.898438 -4.457031 4.484375 -6.8125 C 3.078125 -9.164062 2.375 -12 2.375 -15.3125 C 2.375 -17.75 2.8125 -19.992188 3.6875 -22.046875 C 4.570312 -24.097656 5.828125 -25.890625 7.453125 -27.421875 C 9.078125 -28.960938 11.003906 -30.148438 13.234375 -30.984375 C 15.472656 -31.816406 17.929688 -32.234375 20.609375 -32.234375 C 21.910156 -32.234375 23.238281 -32.117188 24.59375 -31.890625 C 25.945312 -31.660156 27.1875 -31.378906 28.3125 -31.046875 C 29.4375 -30.710938 30.285156 -30.347656 30.859375 -29.953125 L 31.046875 -24.53125 L 30.59375 -24.4375 C 29.707031 -26.5 28.238281 -28.171875 26.1875 -29.453125 C 24.132812 -30.734375 21.757812 -31.375 19.0625 -31.375 C 16.65625 -31.375 14.476562 -30.835938 12.53125 -29.765625 C 10.59375 -28.703125 9.050781 -27.125 7.90625 -25.03125 C 6.769531 -22.9375 6.203125 -20.335938 6.203125 -17.234375 C 6.203125 -15.109375 6.507812 -13.039062 7.125 -11.03125 C 7.75 -9.03125 8.6875 -7.226562 9.9375 -5.625 C 11.1875 -4.03125 12.722656 -2.769531 14.546875 -1.84375 C 16.367188 -0.914062 18.46875 -0.453125 20.84375 -0.453125 C 23.300781 -0.453125 25.445312 -1.085938 27.28125 -2.359375 C 29.125 -3.640625 30.488281 -5.515625 31.375 -7.984375 L 31.875 -7.9375 L 31.140625 -2 C 30.078125 -1.425781 28.519531 -0.875 26.46875 -0.34375 C 24.414062 0.1875 22.113281 0.453125 19.5625 0.453125 Z M 19.5625 0.453125 "/></g></g></g><g fill="#000000" fill-opacity="1"><g transform="translate(294.455349, 47.399274)"><g><path d="M 9.078125 0 L 9.078125 -0.59375 C 9.773438 -0.800781 10.25 -1.253906 10.5 -1.953125 C 10.757812 -2.660156 10.890625 -3.941406 10.890625 -5.796875 L 10.890625 -31.1875 L 8.65625 -31.1875 C 6.625 -31.1875 5.078125 -30.863281 4.015625 -30.21875 C 2.953125 -29.582031 2.023438 -28.445312 1.234375 -26.8125 L 0.734375 -26.90625 L 1 -31.921875 L 24.484375 -31.921875 L 24.75 -26.90625 L 24.25 -26.8125 C 23.488281 -28.445312 22.578125 -29.582031 21.515625 -30.21875 C 20.453125 -30.863281 18.890625 -31.1875 16.828125 -31.1875 L 14.6875 -31.1875 L 14.6875 -5.796875 C 14.6875 -3.941406 14.8125 -2.660156 15.0625 -1.953125 C 15.320312 -1.253906 15.800781 -0.800781 16.5 -0.59375 L 16.5 0 Z M 9.078125 0 "/></g></g></g><g fill="#000000" fill-opacity="1"><g transform="translate(320.014657, 47.399274)"><g/></g></g><g fill="#000000" fill-opacity="1"><g transform="translate(329.590049, 47.399274)"><g/></g></g><g fill="#000000" fill-opacity="1"><g transform="translate(339.206403, 47.399274)"><g><path d="M 2.328125 0 L 2.328125 -0.59375 C 3.023438 -0.800781 3.503906 -1.253906 3.765625 -1.953125 C 4.023438 -2.660156 4.15625 -3.941406 4.15625 -5.796875 L 4.15625 -26.125 C 4.15625 -28.007812 4.023438 -29.289062 3.765625 -29.96875 C 3.503906 -30.65625 3.023438 -31.109375 2.328125 -31.328125 L 2.328125 -31.921875 L 23.796875 -31.921875 L 24.203125 -27.125 L 23.703125 -26.984375 C 22.941406 -28.503906 22 -29.582031 20.875 -30.21875 C 19.75 -30.863281 18.109375 -31.1875 15.953125 -31.1875 L 7.890625 -31.1875 L 7.890625 -17.828125 L 13.3125 -17.828125 C 15.039062 -17.828125 16.382812 -17.941406 17.34375 -18.171875 C 18.300781 -18.398438 19 -18.738281 19.4375 -19.1875 C 19.882812 -19.644531 20.195312 -20.207031 20.375 -20.875 L 20.921875 -20.875 L 20.921875 -13.953125 L 20.375 -13.953125 C 20.195312 -14.648438 19.882812 -15.226562 19.4375 -15.6875 C 19 -16.144531 18.300781 -16.492188 17.34375 -16.734375 C 16.382812 -16.972656 15.039062 -17.09375 13.3125 -17.09375 L 7.890625 -17.09375 L 7.890625 -5.796875 C 7.890625 -3.941406 8.015625 -2.660156 8.265625 -1.953125 C 8.523438 -1.253906 9.007812 -0.800781 9.71875 -0.59375 L 9.71875 0 Z M 2.328125 0 "/></g></g></g><g fill="#000000" fill-opacity="1"><g transform="translate(364.695223, 47.399274)"><g><path d="M 2.328125 0 L 2.328125 -0.59375 C 3.023438 -0.800781 3.503906 -1.253906 3.765625 -1.953125 C 4.023438 -2.660156 4.15625 -3.941406 4.15625 -5.796875 L 4.15625 -26.125 C 4.15625 -28.007812 4.023438 -29.289062 3.765625 -29.96875 C 3.503906 -30.65625 3.023438 -31.109375 2.328125 -31.328125 L 2.328125 -31.921875 L 9.71875 -31.921875 L 9.71875 -31.328125 C 9.007812 -31.109375 8.523438 -30.65625 8.265625 -29.96875 C 8.015625 -29.289062 7.890625 -28.007812 7.890625 -26.125 L 7.890625 -5.796875 C 7.890625 -3.941406 8.015625 -2.660156 8.265625 -1.953125 C 8.523438 -1.253906 9.007812 -0.800781 9.71875 -0.59375 L 9.71875 0 Z M 2.328125 0 "/></g></g></g><g fill="#000000" fill-opacity="1"><g transform="translate(376.732896, 47.399274)"><g><path d="M 26.40625 0.359375 L 4.921875 -27.578125 L 4.921875 -7.609375 C 4.921875 -5.878906 5.039062 -4.539062 5.28125 -3.59375 C 5.53125 -2.65625 5.890625 -1.960938 6.359375 -1.515625 C 6.828125 -1.078125 7.394531 -0.769531 8.0625 -0.59375 L 8.0625 0 L 2.375 0 L 2.375 -0.59375 C 3.070312 -0.800781 3.546875 -1.253906 3.796875 -1.953125 C 4.054688 -2.660156 4.1875 -3.941406 4.1875 -5.796875 L 4.1875 -26.125 C 4.1875 -28.007812 4.019531 -29.289062 3.6875 -29.96875 C 3.351562 -30.65625 2.734375 -31.109375 1.828125 -31.328125 L 1.828125 -31.921875 L 6.296875 -31.921875 L 26.21875 -6.109375 L 26.21875 -24.296875 C 26.21875 -26.035156 26.09375 -27.378906 25.84375 -28.328125 C 25.601562 -29.285156 25.253906 -29.976562 24.796875 -30.40625 C 24.347656 -30.832031 23.773438 -31.140625 23.078125 -31.328125 L 23.078125 -31.921875 L 28.8125 -31.921875 L 28.8125 -31.328125 C 28.113281 -31.109375 27.632812 -30.65625 27.375 -29.96875 C 27.113281 -29.289062 26.984375 -28.007812 26.984375 -26.125 L 26.984375 0.359375 Z M 26.40625 0.359375 "/></g></g></g><g fill="#000000" fill-opacity="1"><g transform="translate(407.374227, 47.399274)"><g><path d="M 2.328125 0 L 2.328125 -0.59375 C 3.023438 -0.800781 3.503906 -1.253906 3.765625 -1.953125 C 4.023438 -2.660156 4.15625 -3.941406 4.15625 -5.796875 L 4.15625 -26.125 C 4.15625 -28.007812 4.023438 -29.289062 3.765625 -29.96875 C 3.503906 -30.65625 3.023438 -31.109375 2.328125 -31.328125 L 2.328125 -31.921875 L 9.71875 -31.921875 L 9.71875 -31.328125 C 9.007812 -31.109375 8.523438 -30.65625 8.265625 -29.96875 C 8.015625 -29.289062 7.890625 -28.007812 7.890625 -26.125 L 7.890625 -5.796875 C 7.890625 -3.941406 8.015625 -2.660156 8.265625 -1.953125 C 8.523438 -1.253906 9.007812 -0.800781 9.71875 -0.59375 L 9.71875 0 Z M 2.328125 0 "/></g></g></g><g fill="#000000" fill-opacity="1"><g transform="translate(419.411901, 47.399274)"><g><path d="M 13 0.453125 C 10.59375 0.453125 8.429688 0.101562 6.515625 -0.59375 C 4.597656 -1.289062 3.109375 -2.019531 2.046875 -2.78125 L 1.828125 -9.125 L 2.328125 -9.203125 C 2.929688 -7.628906 3.726562 -6.164062 4.71875 -4.8125 C 5.707031 -3.457031 6.960938 -2.375 8.484375 -1.5625 C 10.003906 -0.757812 11.8125 -0.359375 13.90625 -0.359375 C 15.125 -0.359375 16.25 -0.609375 17.28125 -1.109375 C 18.3125 -1.617188 19.140625 -2.328125 19.765625 -3.234375 C 20.390625 -4.148438 20.703125 -5.210938 20.703125 -6.421875 C 20.703125 -7.578125 20.394531 -8.582031 19.78125 -9.4375 C 19.175781 -10.289062 18.382812 -11.035156 17.40625 -11.671875 C 16.4375 -12.304688 15.410156 -12.859375 14.328125 -13.328125 C 13.253906 -13.804688 12.234375 -14.242188 11.265625 -14.640625 C 9.472656 -15.367188 7.914062 -16.101562 6.59375 -16.84375 C 5.269531 -17.59375 4.25 -18.488281 3.53125 -19.53125 C 2.820312 -20.582031 2.46875 -21.914062 2.46875 -23.53125 C 2.46875 -25.320312 2.929688 -26.863281 3.859375 -28.15625 C 4.785156 -29.445312 6.082031 -30.445312 7.75 -31.15625 C 9.425781 -31.875 11.375 -32.234375 13.59375 -32.234375 C 15.65625 -32.234375 17.429688 -32.003906 18.921875 -31.546875 C 20.410156 -31.085938 21.597656 -30.617188 22.484375 -30.140625 L 22.65625 -24.84375 L 22.203125 -24.71875 C 21.347656 -26.6875 20.109375 -28.304688 18.484375 -29.578125 C 16.859375 -30.859375 14.738281 -31.5 12.125 -31.5 C 10.90625 -31.5 9.769531 -31.265625 8.71875 -30.796875 C 7.675781 -30.328125 6.84375 -29.648438 6.21875 -28.765625 C 5.59375 -27.890625 5.28125 -26.796875 5.28125 -25.484375 C 5.28125 -24.421875 5.539062 -23.492188 6.0625 -22.703125 C 6.582031 -21.910156 7.265625 -21.222656 8.109375 -20.640625 C 8.960938 -20.066406 9.890625 -19.5625 10.890625 -19.125 C 11.898438 -18.6875 12.890625 -18.269531 13.859375 -17.875 C 15.554688 -17.207031 17.148438 -16.492188 18.640625 -15.734375 C 20.128906 -14.972656 21.335938 -14.046875 22.265625 -12.953125 C 23.191406 -11.859375 23.65625 -10.441406 23.65625 -8.703125 C 23.65625 -6.816406 23.140625 -5.179688 22.109375 -3.796875 C 21.078125 -2.421875 19.75 -1.367188 18.125 -0.640625 C 16.5 0.0859375 14.789062 0.453125 13 0.453125 Z M 13 0.453125 "/></g></g></g><g fill="#000000" fill-opacity="1"><g transform="translate(444.53597, 47.399274)"><g><path d="M 2.328125 0 L 2.328125 -0.59375 C 3.023438 -0.800781 3.503906 -1.253906 3.765625 -1.953125 C 4.023438 -2.660156 4.15625 -3.941406 4.15625 -5.796875 L 4.15625 -26.125 C 4.15625 -28.007812 4.023438 -29.289062 3.765625 -29.96875 C 3.503906 -30.65625 3.023438 -31.109375 2.328125 -31.328125 L 2.328125 -31.921875 L 9.71875 -31.921875 L 9.71875 -31.328125 C 9.007812 -31.109375 8.523438 -30.65625 8.265625 -29.96875 C 8.015625 -29.289062 7.890625 -28.007812 7.890625 -26.125 L 7.890625 -17.28125 L 25.265625 -17.28125 L 25.265625 -26.125 C 25.265625 -28.007812 25.132812 -29.289062 24.875 -29.96875 C 24.613281 -30.65625 24.132812 -31.109375 23.4375 -31.328125 L 23.4375 -31.921875 L 30.828125 -31.921875 L 30.828125 -31.328125 C 30.117188 -31.109375 29.632812 -30.65625 29.375 -29.96875 C 29.125 -29.289062 29 -28.007812 29 -26.125 L 29 -5.796875 C 29 -3.941406 29.125 -2.660156 29.375 -1.953125 C 29.632812 -1.253906 30.117188 -0.800781 30.828125 -0.59375 L 30.828125 0 L 23.4375 0 L 23.4375 -0.59375 C 24.132812 -0.800781 24.613281 -1.253906 24.875 -1.953125 C 25.132812 -2.660156 25.265625 -3.941406 25.265625 -5.796875 L 25.265625 -16.546875 L 7.890625 -16.546875 L 7.890625 -5.796875 C 7.890625 -3.941406 8.015625 -2.660156 8.265625 -1.953125 C 8.523438 -1.253906 9.007812 -0.800781 9.71875 -0.59375 L 9.71875 0 Z M 2.328125 0 "/></g></g></g></svg>